<?xml version="1.0" encoding="UTF-8" standalone="no"?>
<svg
   width="532pt"
   height="532pt"
   version="1.1"
   viewBox="0 0 532 532"
   id="svg586"
   xmlns="http://www.w3.org/2000/svg"
   xmlnsSvg="http://www.w3.org/2000/svg">
  <defs
     id="defs504" />
  <g
     id="g584"
     transform="translate(-83.999998,-14)">
    <path
       d="M 350,14 C 203.28,14 84,133.28 84,280 84,426.72 203.28,546 350,546 496.72,546 616,426.72 616,280 616,133.28 496.72,14 350,14 Z m 99.121,290.64 h -74.48 v 74.48 c 0,13.441 -11.199,24.641 -24.641,24.641 -6.7188,0 -12.879,-2.8008 -17.359,-7.2812 -4.48,-4.4804 -7.2812,-10.641 -7.2812,-17.359 v -74.48 h -74.48 c -6.7188,0 -12.879,-2.8008 -17.359,-7.2812 -4.48,-4.4804 -7.2812,-10.641 -7.2812,-17.359 0,-13.441 11.199,-24.641 24.641,-24.641 h 74.48 v -74.48 c 0,-13.441 11.199,-24.641 24.641,-24.641 13.442,0 24.641,11.199 24.641,24.641 v 74.48 h 74.48 c 13.441,0 24.641,11.199 24.641,24.641 0,13.442 -10.641,24.641 -24.641,24.641 z"
       id="path506" />
  </g>
</svg>
